<svg width="20" height="16" viewBox="0 0 20 16" fill="none" xmlns="http://www.w3.org/2000/svg">
<path d="M8.89998 3.6C8.89998 4.47521 8.5523 5.31458 7.93343 5.93345C7.31456 6.55232 6.47519 6.9 5.59998 6.9C4.72476 6.9 3.88539 6.55232 3.26652 5.93345C2.64765 5.31458 2.29998 4.47521 2.29998 3.6C2.29998 2.72478 2.64765 1.88542 3.26652 1.26655C3.88539 0.647677 4.72476 0.299999 5.59998 0.299999C6.47519 0.299999 7.31456 0.647677 7.93343 1.26655C8.5523 1.88542 8.89998 2.72478 8.89998 3.6ZM17.7 3.6C17.7 4.03336 17.6146 4.46248 17.4488 4.86285C17.2829 5.26323 17.0399 5.62702 16.7334 5.93345C16.427 6.23989 16.0632 6.48296 15.6628 6.6488C15.2625 6.81464 14.8333 6.9 14.4 6.9C13.9666 6.9 13.5375 6.81464 13.1371 6.6488C12.7367 6.48296 12.373 6.23989 12.0665 5.93345C11.7601 5.62702 11.517 5.26323 11.3512 4.86285C11.1853 4.46248 11.1 4.03336 11.1 3.6C11.1 2.72478 11.4477 1.88542 12.0665 1.26655C12.6854 0.647677 13.5248 0.299999 14.4 0.299999C15.2752 0.299999 16.1146 0.647677 16.7334 1.26655C17.3523 1.88542 17.7 2.72478 17.7 3.6ZM13.223 15.7C13.2736 15.3403 13.3 14.974 13.3 14.6C13.3025 12.8717 12.7211 11.1933 11.65 9.837C12.4861 9.35428 13.4345 9.10015 14.3999 9.10014C15.3654 9.10013 16.3138 9.35426 17.1499 9.83696C17.986 10.3197 18.6803 11.014 19.1631 11.85C19.6458 12.6861 19.9 13.6346 19.9 14.6V15.7H13.223ZM5.59998 9.1C7.05867 9.1 8.45761 9.67946 9.48906 10.7109C10.5205 11.7424 11.1 13.1413 11.1 14.6V15.7H0.0999756V14.6C0.0999756 13.1413 0.679438 11.7424 1.71089 10.7109C2.74234 9.67946 4.14128 9.1 5.59998 9.1Z" fill="white"/>
</svg>
